<svg width="48" height="32" viewBox="0 0 48 32" fill="none" xmlns="http://www.w3.org/2000/svg">
<rect width="48" height="32" rx="8" fill="#10367C"/>
<path d="M20.4834 15.6348C20.4834 18.166 19.9736 20.0557 18.9541 21.3037C17.9346 22.5518 16.3994 23.1758 14.3486 23.1758C13.5693 23.1758 13.0098 23.1289 12.6699 23.0352V21.3037C13.1914 21.4502 13.7158 21.5234 14.2432 21.5234C15.6377 21.5234 16.6777 21.1484 17.3633 20.3984C18.0488 19.6484 18.4238 18.4707 18.4883 16.8652H18.3828C18.0371 17.3926 17.6182 17.7734 17.126 18.0078C16.6396 18.2422 16.0684 18.3594 15.4121 18.3594C14.2754 18.3594 13.3818 18.0049 12.7314 17.2959C12.0811 16.5869 11.7559 15.6143 11.7559 14.3779C11.7559 13.0361 12.1309 11.9697 12.8809 11.1787C13.6367 10.3818 14.665 9.9834 15.9658 9.9834C16.8799 9.9834 17.6768 10.2061 18.3564 10.6514C19.0361 11.0967 19.5605 11.7441 19.9297 12.5938C20.2988 13.4375 20.4834 14.4512 20.4834 15.6348ZM16.001 11.6973C15.2861 11.6973 14.7383 11.9316 14.3574 12.4004C13.9766 12.8633 13.7861 13.5166 13.7861 14.3604C13.7861 15.0928 13.9619 15.6699 14.3135 16.0918C14.6709 16.5078 15.21 16.7158 15.9307 16.7158C16.6279 16.7158 17.2139 16.5078 17.6885 16.0918C18.1631 15.6758 18.4004 15.1895 18.4004 14.6328C18.4004 14.1113 18.2979 13.625 18.0928 13.1738C17.8936 12.7168 17.6123 12.3564 17.249 12.0928C16.8857 11.8291 16.4697 11.6973 16.001 11.6973ZM24.9043 21.1104C24.623 22.2002 24.1074 23.6035 23.3574 25.3203H21.8369C22.2412 23.7383 22.543 22.2676 22.7422 20.9082H24.7725L24.9043 21.1104ZM32.9551 23H30.8896V14.7031C30.8896 13.7129 30.9131 12.9277 30.96 12.3477C30.8252 12.4883 30.6582 12.6436 30.459 12.8135C30.2656 12.9834 29.6094 13.5225 28.4902 14.4307L27.4531 13.1211L31.2324 10.1504H32.9551V23Z" fill="white"/>
</svg>
